<mxfile modified="2023-09-30T11:20:46.061Z" host="app.diagrams.net" agent="Mozilla/5.0 (Windows NT 10.0; Win64; x64) AppleWebKit/537.36 (KHTML, like Gecko) Chrome/117.0.0.0 Safari/537.36" etag="9bFhMzDhfa5fBJZ30-GK" version="22.0.0" type="github">
  <diagram id="l8hXMBHkgcEJcSW0mbfh" name="Page-1">
    <mxGraphModel dx="2933" dy="1593" grid="0" gridSize="10" guides="1" tooltips="1" connect="1" arrows="1" fold="1" page="1" pageScale="1" pageWidth="827" pageHeight="1169" math="0" shadow="0">
      <root>
        <mxCell id="0" />
        <mxCell id="1" parent="0" />
        <mxCell id="NWA3tGayirmU5eZJuVyy-1" value="&lt;h1&gt;&lt;font style=&quot;font-size: 22px;&quot;&gt;Agency 1&lt;/font&gt;&lt;/h1&gt;" style="image;points=[];aspect=fixed;html=1;align=right;shadow=0;dashed=0;image=img/lib/allied_telesis/buildings/Medium_Business_Building.svg;verticalAlign=middle;labelPosition=left;verticalLabelPosition=middle;labelBackgroundColor=none;spacingRight=10;" vertex="1" parent="1">
          <mxGeometry x="220" y="130" width="74.6" height="95.91" as="geometry" />
        </mxCell>
        <mxCell id="NWA3tGayirmU5eZJuVyy-2" value="&lt;h1&gt;Disaster Origin&lt;/h1&gt;" style="sketch=0;points=[[0,0,0],[0.25,0,0],[0.5,0,0],[0.75,0,0],[1,0,0],[0,1,0],[0.25,1,0],[0.5,1,0],[0.75,1,0],[1,1,0],[0,0.25,0],[0,0.5,0],[0,0.75,0],[1,0.25,0],[1,0.5,0],[1,0.75,0]];outlineConnect=0;fontColor=#232F3E;fillColor=#7AA116;strokeColor=#ffffff;dashed=0;verticalLabelPosition=top;verticalAlign=bottom;align=center;html=1;fontSize=12;fontStyle=0;aspect=fixed;shape=mxgraph.aws4.resourceIcon;resIcon=mxgraph.aws4.cloudendure_disaster_recovery;labelPosition=center;" vertex="1" parent="1">
          <mxGeometry x="446.75" y="70" width="78" height="78" as="geometry" />
        </mxCell>
        <mxCell id="NWA3tGayirmU5eZJuVyy-16" style="edgeStyle=orthogonalEdgeStyle;rounded=0;orthogonalLoop=1;jettySize=auto;html=1;entryX=1;entryY=0.481;entryDx=0;entryDy=0;entryPerimeter=0;" edge="1" parent="1" target="NWA3tGayirmU5eZJuVyy-15">
          <mxGeometry relative="1" as="geometry">
            <mxPoint x="631.7169999999999" y="590.0048999999999" as="targetPoint" />
            <mxPoint x="531.5000000000002" y="306.19000000000005" as="sourcePoint" />
            <Array as="points">
              <mxPoint x="718" y="306" />
              <mxPoint x="718" y="628" />
              <mxPoint x="605" y="628" />
            </Array>
          </mxGeometry>
        </mxCell>
        <mxCell id="NWA3tGayirmU5eZJuVyy-3" value="&lt;h1 style=&quot;font-size: 22px;&quot;&gt;Work Room&lt;/h1&gt;" style="html=1;strokeWidth=1;shadow=0;dashed=0;shape=mxgraph.ios7.misc.notification;fillColor=#FF3B2F;strokeColor=none;buttonText=;strokeColor2=#222222;fontColor=#222222;fontSize=22;verticalLabelPosition=bottom;verticalAlign=middle;align=center;sketch=0;" vertex="1" parent="1">
          <mxGeometry x="440" y="267.73" width="91.5" height="80.45" as="geometry" />
        </mxCell>
        <mxCell id="NWA3tGayirmU5eZJuVyy-4" value="&lt;h1&gt;Agency 2&lt;/h1&gt;" style="image;points=[];aspect=fixed;html=1;align=right;shadow=0;dashed=0;image=img/lib/allied_telesis/buildings/Medium_Business_Building.svg;labelBackgroundColor=none;labelPosition=left;verticalLabelPosition=middle;verticalAlign=middle;spacingRight=10;" vertex="1" parent="1">
          <mxGeometry x="145.4" y="260" width="74.6" height="95.91" as="geometry" />
        </mxCell>
        <mxCell id="NWA3tGayirmU5eZJuVyy-5" value="&lt;h1&gt;Agency n&lt;/h1&gt;" style="image;points=[];aspect=fixed;html=1;align=right;shadow=0;dashed=0;image=img/lib/allied_telesis/buildings/Medium_Business_Building.svg;labelBackgroundColor=none;labelPosition=left;verticalLabelPosition=middle;verticalAlign=middle;spacingRight=10;" vertex="1" parent="1">
          <mxGeometry x="220" y="400" width="74.6" height="95.91" as="geometry" />
        </mxCell>
        <mxCell id="NWA3tGayirmU5eZJuVyy-6" value="" style="endArrow=classic;html=1;rounded=0;" edge="1" parent="1" source="NWA3tGayirmU5eZJuVyy-2" target="NWA3tGayirmU5eZJuVyy-3">
          <mxGeometry width="50" height="50" relative="1" as="geometry">
            <mxPoint x="540" y="310" as="sourcePoint" />
            <mxPoint x="590" y="260" as="targetPoint" />
          </mxGeometry>
        </mxCell>
        <mxCell id="NWA3tGayirmU5eZJuVyy-9" style="edgeStyle=elbowEdgeStyle;rounded=0;orthogonalLoop=1;jettySize=auto;html=1;entryX=0.006;entryY=0.243;entryDx=0;entryDy=0;entryPerimeter=0;" edge="1" parent="1" target="NWA3tGayirmU5eZJuVyy-3">
          <mxGeometry relative="1" as="geometry">
            <mxPoint x="294.6" y="160.005" as="sourcePoint" />
            <mxPoint x="439.1" y="287.14000000000004" as="targetPoint" />
          </mxGeometry>
        </mxCell>
        <mxCell id="NWA3tGayirmU5eZJuVyy-11" style="rounded=0;orthogonalLoop=1;jettySize=auto;html=1;entryX=0.034;entryY=0.529;entryDx=0;entryDy=0;entryPerimeter=0;" edge="1" parent="1" source="NWA3tGayirmU5eZJuVyy-4" target="NWA3tGayirmU5eZJuVyy-3">
          <mxGeometry relative="1" as="geometry" />
        </mxCell>
        <mxCell id="NWA3tGayirmU5eZJuVyy-12" style="edgeStyle=elbowEdgeStyle;rounded=0;orthogonalLoop=1;jettySize=auto;html=1;entryX=0.008;entryY=0.855;entryDx=0;entryDy=0;entryPerimeter=0;" edge="1" parent="1" source="NWA3tGayirmU5eZJuVyy-5" target="NWA3tGayirmU5eZJuVyy-3">
          <mxGeometry relative="1" as="geometry" />
        </mxCell>
        <mxCell id="NWA3tGayirmU5eZJuVyy-26" style="rounded=0;orthogonalLoop=1;jettySize=auto;html=1;" edge="1" parent="1" target="NWA3tGayirmU5eZJuVyy-21">
          <mxGeometry relative="1" as="geometry">
            <mxPoint x="559" y="667" as="sourcePoint" />
            <Array as="points" />
          </mxGeometry>
        </mxCell>
        <mxCell id="NWA3tGayirmU5eZJuVyy-27" style="rounded=0;orthogonalLoop=1;jettySize=auto;html=1;" edge="1" parent="1" source="NWA3tGayirmU5eZJuVyy-15" target="NWA3tGayirmU5eZJuVyy-24">
          <mxGeometry relative="1" as="geometry" />
        </mxCell>
        <mxCell id="NWA3tGayirmU5eZJuVyy-15" value="&lt;h1 style=&quot;font-size: 22px;&quot;&gt;Work Room&lt;/h1&gt;" style="html=1;strokeWidth=1;shadow=0;dashed=0;shape=mxgraph.ios7.misc.notification;fillColor=#FF3B2F;strokeColor=none;buttonText=;strokeColor2=#222222;fontColor=#222222;fontSize=22;verticalLabelPosition=top;verticalAlign=bottom;align=center;sketch=0;labelPosition=center;" vertex="1" parent="1">
          <mxGeometry x="513" y="590" width="91.5" height="80.45" as="geometry" />
        </mxCell>
        <mxCell id="NWA3tGayirmU5eZJuVyy-17" value="" style="whiteSpace=wrap;html=1;aspect=fixed;fillColor=none;rounded=1;arcSize=17;dashed=1;dashPattern=12 12;" vertex="1" parent="1">
          <mxGeometry x="393" y="233" width="185.5" height="185.5" as="geometry" />
        </mxCell>
        <mxCell id="NWA3tGayirmU5eZJuVyy-18" value="&lt;h1 style=&quot;&quot;&gt;&lt;font style=&quot;font-size: 40px;&quot;&gt;Stage 1&lt;/font&gt;&lt;/h1&gt;" style="text;strokeColor=none;align=center;fillColor=none;html=1;verticalAlign=middle;whiteSpace=wrap;rounded=0;fontSize=24;fontColor=#832BFF;" vertex="1" parent="1">
          <mxGeometry x="590" y="244" width="165" height="30" as="geometry" />
        </mxCell>
        <mxCell id="NWA3tGayirmU5eZJuVyy-20" value="" style="shape=image;verticalLabelPosition=bottom;verticalAlign=top;imageAspect=0;aspect=fixed;image=data:image/svg+xml,PHN2ZyB4bWxucz0iaHR0cDovL3d3dy53My5vcmcvMjAwMC9zdmciIHZlcnNpb249IjEiIHZpZXdCb3g9IjAgMCA0OCA0OCIgZW5hYmxlLWJhY2tncm91bmQ9Im5ldyAwIDAgNDggNDgiPiYjeGE7ICAgIDxjaXJjbGUgZmlsbD0iIzRDQUY1MCIgY3g9IjI0IiBjeT0iMjQiIHI9IjIxIi8+JiN4YTsgICAgPGcgZmlsbD0iI2ZmZiI+JiN4YTsgICAgICAgIDxyZWN0IHg9IjIxIiB5PSIxNCIgd2lkdGg9IjYiIGhlaWdodD0iMjAiLz4mI3hhOyAgICAgICAgPHJlY3QgeD0iMTQiIHk9IjIxIiB3aWR0aD0iMjAiIGhlaWdodD0iNiIvPiYjeGE7ICAgIDwvZz4mI3hhOzwvc3ZnPg==" vertex="1" parent="1">
          <mxGeometry x="384" y="755" width="80" height="80" as="geometry" />
        </mxCell>
        <mxCell id="NWA3tGayirmU5eZJuVyy-21" value="" style="shape=image;verticalLabelPosition=bottom;verticalAlign=top;imageAspect=0;aspect=fixed;image=data:image/svg+xml,PHN2ZyB4bWxucz0iaHR0cDovL3d3dy53My5vcmcvMjAwMC9zdmciIHZlcnNpb249IjEiIHZpZXdCb3g9IjAgMCA0OCA0OCIgZW5hYmxlLWJhY2tncm91bmQ9Im5ldyAwIDAgNDggNDgiPiYjeGE7ICAgIDxwYXRoIGZpbGw9IiM4QkMzNEEiIGQ9Ik00MywzNkgyOVYxNGgxMC42YzAuOSwwLDEuNiwwLjYsMS45LDEuNEw0NSwyNnY4QzQ1LDM1LjEsNDQuMSwzNiw0MywzNnoiLz4mI3hhOyAgICA8cGF0aCBmaWxsPSIjMzg4RTNDIiBkPSJNMjksMzZINWMtMS4xLDAtMi0wLjktMi0yVjljMC0xLjEsMC45LTIsMi0yaDIyYzEuMSwwLDIsMC45LDIsMlYzNnoiLz4mI3hhOyAgICA8ZyBmaWxsPSIjMzc0NzRGIj4mI3hhOyAgICAgICAgPGNpcmNsZSBjeD0iMzciIGN5PSIzNiIgcj0iNSIvPiYjeGE7ICAgICAgICA8Y2lyY2xlIGN4PSIxMyIgY3k9IjM2IiByPSI1Ii8+JiN4YTsgICAgPC9nPiYjeGE7ICAgIDxnIGZpbGw9IiM3ODkwOUMiPiYjeGE7ICAgICAgICA8Y2lyY2xlIGN4PSIzNyIgY3k9IjM2IiByPSIyIi8+JiN4YTsgICAgICAgIDxjaXJjbGUgY3g9IjEzIiBjeT0iMzYiIHI9IjIiLz4mI3hhOyAgICA8L2c+JiN4YTsgICAgPHBhdGggZmlsbD0iIzM3NDc0RiIgZD0iTTQxLDI1aC03Yy0wLjYsMC0xLTAuNC0xLTF2LTdjMC0wLjYsMC40LTEsMS0xaDUuM2MwLjQsMCwwLjgsMC4zLDAuOSwwLjdsMS43LDUuMmMwLDAuMSwwLjEsMC4yLDAuMSwwLjNWMjQgQzQyLDI0LjYsNDEuNiwyNSw0MSwyNXoiLz4mI3hhOyAgICA8cG9seWdvbiBmaWxsPSIjRENFREM4IiBwb2ludHM9IjIxLjgsMTMuOCAxMy45LDIxLjcgMTAuMiwxNy45IDgsMjAuMSAxMy45LDI2IDI0LDE1LjkiLz4mI3hhOzwvc3ZnPg==" vertex="1" parent="1">
          <mxGeometry x="524.75" y="786" width="93" height="93" as="geometry" />
        </mxCell>
        <mxCell id="NWA3tGayirmU5eZJuVyy-24" value="" style="shape=image;verticalLabelPosition=bottom;verticalAlign=top;imageAspect=0;aspect=fixed;image=data:image/svg+xml,PHN2ZyB4bWxucz0iaHR0cDovL3d3dy53My5vcmcvMjAwMC9zdmciIHZlcnNpb249IjEiIHZpZXdCb3g9IjAgMCA0OCA0OCIgZW5hYmxlLWJhY2tncm91bmQ9Im5ldyAwIDAgNDggNDgiPiYjeGE7ICAgIDxwb2x5Z29uIGZpbGw9IiNFNjkzMjkiIHBvaW50cz0iMTEuNywyMS42IDE2LjgsMzEuNSAyNi4zLDI3LjYgMzAuNywxNC45IDE1LjksMTUuNyIvPiYjeGE7ICAgIDxjaXJjbGUgZmlsbD0iIzU0NkU3QSIgY3g9IjE1IiBjeT0iMzYiIHI9IjcuOCIvPiYjeGE7ICAgIDxnIGZpbGw9IiM5MEE0QUUiPiYjeGE7ICAgICAgICA8cGF0aCBkPSJNMTUsMjdjLTUsMC05LDQtOSw5YzAsNSw0LDksOSw5czktNCw5LTlDMjQsMzEsMjAsMjcsMTUsMjd6IE0xNSw0M2MtMy45LDAtNy0zLjEtNy03YzAtMy45LDMuMS03LDctNyBzNywzLjEsNyw3QzIyLDM5LjksMTguOSw0MywxNSw0M3oiLz4mI3hhOyAgICAgICAgPHJlY3QgeD0iMTQiIHk9IjMzIiB3aWR0aD0iMiIgaGVpZ2h0PSI4Ii8+JiN4YTsgICAgPC9nPiYjeGE7ICAgIDxnIGZpbGw9IiNGRkI3NEQiPiYjeGE7ICAgICAgICA8cGF0aCBkPSJNMTIuOSwzNkwxMi45LDM2YzEsMS45LDMuMiwyLjcsNS4xLDEuN2wxNi41LTguNWMxLTAuNSwxLjctMS4yLDIuMi0xLjljMS43LTMuMiw1LjYtMTAuNyw4LjItMTcuMiBsLTE4LjIsOC43TDIxLjksMjZsLTYuOCwzLjZDMTIuNSwzMC45LDExLjcsMzMuOCwxMi45LDM2eiIvPiYjeGE7ICAgICAgICA8cGF0aCBkPSJNMzAuMiwzTDEzLjcsOS4zYy0wLjcsMC4yLTEuNSwxLTIuMiwxLjdsLTUuNiw3LjVjLTEsMS41LTEuMiwzLjQtMC41LDUuMWMwLjQsMSwxLjcsMy40LDMuMSw2LjEgYzEuNi0xLjcsMy45LTIuNyw2LjUtMi43YzAuNCwwLDAuOSwwLDEuMywwLjFsLTIuMS00LjJsNC42LTQuMWg4YzAsMCwxNS41LTIuMiwxOC4yLTguN0wzMC4yLDN6Ii8+JiN4YTsgICAgPC9nPiYjeGE7ICAgIDxwYXRoIGZpbGw9IiNGRkNERDIiIGQ9Ik0xOC4yLDM2Yy0xLjMsMC42LTIuOCwwLTMuMy0xLjNjLTAuNi0xLjMsMC0yLjgsMS4zLTMuM0MxNy40LDMwLjgsMTkuNCwzNS40LDE4LjIsMzZ6Ii8+JiN4YTs8L3N2Zz4=" vertex="1" parent="1">
          <mxGeometry x="682" y="761" width="93" height="93" as="geometry" />
        </mxCell>
        <mxCell id="NWA3tGayirmU5eZJuVyy-25" style="rounded=0;orthogonalLoop=1;jettySize=auto;html=1;" edge="1" parent="1" source="NWA3tGayirmU5eZJuVyy-15" target="NWA3tGayirmU5eZJuVyy-20">
          <mxGeometry relative="1" as="geometry">
            <mxPoint x="412" y="727" as="targetPoint" />
          </mxGeometry>
        </mxCell>
        <mxCell id="NWA3tGayirmU5eZJuVyy-28" value="" style="shape=image;verticalLabelPosition=bottom;verticalAlign=top;imageAspect=0;aspect=fixed;image=data:image/svg+xml,PHN2ZyB4bWxucz0iaHR0cDovL3d3dy53My5vcmcvMjAwMC9zdmciIHZlcnNpb249IjEiIHZpZXdCb3g9IjAgMCA0OCA0OCIgZW5hYmxlLWJhY2tncm91bmQ9Im5ldyAwIDAgNDggNDgiPiYjeGE7ICAgIDxwb2x5Z29uIGZpbGw9IiM4QkMzNEEiIHBvaW50cz0iMjQsMyAyOC43LDYuNiAzNC41LDUuOCAzNi43LDExLjMgNDIuMiwxMy41IDQxLjQsMTkuMyA0NSwyNCA0MS40LDI4LjcgNDIuMiwzNC41IDM2LjcsMzYuNyAzNC41LDQyLjIgMjguNyw0MS40IDI0LDQ1IDE5LjMsNDEuNCAxMy41LDQyLjIgMTEuMywzNi43IDUuOCwzNC41IDYuNiwyOC43IDMsMjQgNi42LDE5LjMgNS44LDEzLjUgMTEuMywxMS4zIDEzLjUsNS44IDE5LjMsNi42Ii8+JiN4YTsgICAgPHBvbHlnb24gZmlsbD0iI0NDRkY5MCIgcG9pbnRzPSIzNC42LDE0LjYgMjEsMjguMiAxNS40LDIyLjYgMTIuNiwyNS40IDIxLDMzLjggMzcuNCwxNy40Ii8+JiN4YTs8L3N2Zz4=" vertex="1" parent="1">
          <mxGeometry x="660" y="1000" width="125.7" height="125.7" as="geometry" />
        </mxCell>
        <mxCell id="NWA3tGayirmU5eZJuVyy-36" style="edgeStyle=orthogonalEdgeStyle;rounded=0;orthogonalLoop=1;jettySize=auto;html=1;" edge="1" parent="1" source="NWA3tGayirmU5eZJuVyy-29" target="NWA3tGayirmU5eZJuVyy-28">
          <mxGeometry relative="1" as="geometry">
            <Array as="points">
              <mxPoint x="120" y="1079" />
            </Array>
          </mxGeometry>
        </mxCell>
        <mxCell id="NWA3tGayirmU5eZJuVyy-40" style="rounded=0;orthogonalLoop=1;jettySize=auto;html=1;exitX=0.752;exitY=0.018;exitDx=0;exitDy=0;exitPerimeter=0;entryX=0;entryY=0.75;entryDx=0;entryDy=0;" edge="1" parent="1" source="NWA3tGayirmU5eZJuVyy-29" target="NWA3tGayirmU5eZJuVyy-37">
          <mxGeometry relative="1" as="geometry">
            <mxPoint x="165.5" y="925.2222222222222" as="sourcePoint" />
            <mxPoint x="224.30962949300374" y="822.1658257509275" as="targetPoint" />
          </mxGeometry>
        </mxCell>
        <mxCell id="NWA3tGayirmU5eZJuVyy-41" style="rounded=0;orthogonalLoop=1;jettySize=auto;html=1;" edge="1" parent="1" source="NWA3tGayirmU5eZJuVyy-29" target="NWA3tGayirmU5eZJuVyy-38">
          <mxGeometry relative="1" as="geometry" />
        </mxCell>
        <mxCell id="NWA3tGayirmU5eZJuVyy-42" style="rounded=0;orthogonalLoop=1;jettySize=auto;html=1;" edge="1" parent="1" source="NWA3tGayirmU5eZJuVyy-29" target="NWA3tGayirmU5eZJuVyy-39">
          <mxGeometry relative="1" as="geometry" />
        </mxCell>
        <mxCell id="NWA3tGayirmU5eZJuVyy-29" value="&lt;h1 style=&quot;font-size: 22px;&quot;&gt;Work Room&lt;/h1&gt;" style="html=1;strokeWidth=1;shadow=0;dashed=0;shape=mxgraph.ios7.misc.notification;fillColor=#FF3B2F;strokeColor=none;buttonText=;strokeColor2=#222222;fontColor=#222222;fontSize=22;verticalLabelPosition=bottom;verticalAlign=top;align=center;sketch=0;labelPosition=center;spacingLeft=0;spacingBottom=0;spacingTop=-10;" vertex="1" parent="1">
          <mxGeometry x="73.99999999999999" y="884" width="91.5" height="80.45" as="geometry" />
        </mxCell>
        <mxCell id="NWA3tGayirmU5eZJuVyy-32" value="" style="whiteSpace=wrap;html=1;aspect=fixed;fillColor=none;rounded=1;arcSize=17;dashed=1;dashPattern=12 12;" vertex="1" parent="1">
          <mxGeometry x="466" y="524.5" width="185.5" height="185.5" as="geometry" />
        </mxCell>
        <mxCell id="NWA3tGayirmU5eZJuVyy-34" value="" style="edgeStyle=orthogonalEdgeStyle;rounded=0;orthogonalLoop=1;jettySize=auto;html=1;entryX=0.453;entryY=0.034;entryDx=0;entryDy=0;entryPerimeter=0;" edge="1" parent="1" source="NWA3tGayirmU5eZJuVyy-15" target="NWA3tGayirmU5eZJuVyy-29">
          <mxGeometry relative="1" as="geometry">
            <mxPoint x="513" y="630" as="sourcePoint" />
            <mxPoint x="116.59649999999999" y="836.6695" as="targetPoint" />
          </mxGeometry>
        </mxCell>
        <mxCell id="NWA3tGayirmU5eZJuVyy-35" value="" style="whiteSpace=wrap;html=1;aspect=fixed;fillColor=none;rounded=1;arcSize=17;dashed=1;dashPattern=12 12;" vertex="1" parent="1">
          <mxGeometry x="24" y="845" width="185.5" height="185.5" as="geometry" />
        </mxCell>
        <mxCell id="NWA3tGayirmU5eZJuVyy-37" value="" style="shape=image;verticalLabelPosition=bottom;verticalAlign=top;imageAspect=0;aspect=fixed;image=data:image/svg+xml,PHN2ZyB4bWxucz0iaHR0cDovL3d3dy53My5vcmcvMjAwMC9zdmciIHZlcnNpb249IjEiIHZpZXdCb3g9IjAgMCA0OCA0OCIgZW5hYmxlLWJhY2tncm91bmQ9Im5ldyAwIDAgNDggNDgiPiYjeGE7ICAgIDxnIGZpbGw9IiM5MENBRjkiPiYjeGE7ICAgICAgICA8cGF0aCBkPSJNMTcuNCwzM0gxNXYtNGg0bDAuNCwxLjVDMTkuNywzMS44LDE4LjcsMzMsMTcuNCwzM3oiLz4mI3hhOyAgICAgICAgPHBhdGggZD0iTTM3LDM2YzAsMC0xMS44LTctMTgtN1YxNWM1LjgsMCwxOC03LDE4LTdWMzZ6Ii8+JiN4YTsgICAgPC9nPiYjeGE7ICAgIDxnIGZpbGw9IiMyODM1OTMiPiYjeGE7ICAgICAgICA8Y2lyY2xlIGN4PSI5IiBjeT0iMjIiIHI9IjUiLz4mI3hhOyAgICAgICAgPHBhdGggZD0iTTQwLDE5aC0zdjZoM2MxLjcsMCwzLTEuMywzLTNTNDEuNywxOSw0MCwxOXoiLz4mI3hhOyAgICAgICAgPHBhdGggZD0iTTE4LjYsNDEuMmMtMC45LDAuNi0yLjUsMS4yLTQuNiwxLjRjLTAuNiwwLjEtMS4yLTAuMy0xLjQtMUw4LjIsMjcuOWMwLDAsOC44LTYuMiw4LjgsMS4xIGMwLDUuNSwxLjUsOC40LDIuMiw5LjVjMC41LDAuNywwLjUsMS42LDAsMi4zQzE5LDQxLDE4LjgsNDEuMSwxOC42LDQxLjJ6Ii8+JiN4YTsgICAgPC9nPiYjeGE7ICAgIDxwYXRoIGZpbGw9IiMzRjUxQjUiIGQ9Ik05LDI5aDEwVjE1SDljLTEuMSwwLTIsMC45LTIsMnYxMEM3LDI4LjEsNy45LDI5LDksMjl6Ii8+JiN4YTsgICAgPHBhdGggZmlsbD0iIzQyQTVGNSIgZD0iTTM4LDM4TDM4LDM4Yy0xLjEsMC0yLTAuOS0yLTJWOGMwLTEuMSwwLjktMiwyLTJoMGMxLjEsMCwyLDAuOSwyLDJ2MjhDNDAsMzcuMSwzOS4xLDM4LDM4LDM4eiIvPiYjeGE7PC9zdmc+;rotation=325;" vertex="1" parent="1">
          <mxGeometry x="190" y="745" width="68.6" height="68.6" as="geometry" />
        </mxCell>
        <mxCell id="NWA3tGayirmU5eZJuVyy-38" value="" style="shape=image;verticalLabelPosition=bottom;verticalAlign=top;imageAspect=0;aspect=fixed;image=data:image/svg+xml,PHN2ZyB4bWxucz0iaHR0cDovL3d3dy53My5vcmcvMjAwMC9zdmciIHZlcnNpb249IjEiIHZpZXdCb3g9IjAgMCA0OCA0OCIgZW5hYmxlLWJhY2tncm91bmQ9Im5ldyAwIDAgNDggNDgiPiYjeGE7ICAgIDxnIGZpbGw9IiM0Q0FGNTAiPiYjeGE7ICAgICAgICA8cmVjdCB4PSI0MCIgeT0iMjEiIHdpZHRoPSI0IiBoZWlnaHQ9IjIzIi8+JiN4YTsgICAgICAgIDxyZWN0IHg9IjM0IiB5PSIyOCIgd2lkdGg9IjQiIGhlaWdodD0iMTYiLz4mI3hhOyAgICAgICAgPHJlY3QgeD0iMjgiIHk9IjIzIiB3aWR0aD0iNCIgaGVpZ2h0PSIyMSIvPiYjeGE7ICAgICAgICA8cmVjdCB4PSIyMiIgeT0iMjkiIHdpZHRoPSI0IiBoZWlnaHQ9IjE1Ii8+JiN4YTsgICAgICAgIDxyZWN0IHg9IjE2IiB5PSIzMiIgd2lkdGg9IjQiIGhlaWdodD0iMTIiLz4mI3hhOyAgICAgICAgPHJlY3QgeD0iMTAiIHk9IjMwIiB3aWR0aD0iNCIgaGVpZ2h0PSIxNCIvPiYjeGE7ICAgICAgICA8cmVjdCB4PSI0IiB5PSIzNCIgd2lkdGg9IjQiIGhlaWdodD0iMTAiLz4mI3hhOyAgICA8L2c+JiN4YTsgICAgPGcgZmlsbD0iIzM4OEUzQyI+JiN4YTsgICAgICAgIDxwb2x5Z29uIHBvaW50cz0iNDAuMSw5LjEgMzQsMTUuMiAzMCwxMS4yIDIwLDIxLjIgMTUsMTYuMiA0LjYsMjYuNiA3LjQsMjkuNCAxNSwyMS44IDIwLDI2LjggMzAsMTYuOCAzNCwyMC44IDQyLjksMTEuOSIvPiYjeGE7ICAgICAgICA8cG9seWdvbiBwb2ludHM9IjQ0LDggMzUsOCA0NCwxNyIvPiYjeGE7ICAgIDwvZz4mI3hhOzwvc3ZnPg==" vertex="1" parent="1">
          <mxGeometry x="244" y="847" width="68" height="68" as="geometry" />
        </mxCell>
        <mxCell id="NWA3tGayirmU5eZJuVyy-39" value="" style="shape=image;verticalLabelPosition=bottom;verticalAlign=top;imageAspect=0;aspect=fixed;image=data:image/svg+xml,PHN2ZyB4bWxucz0iaHR0cDovL3d3dy53My5vcmcvMjAwMC9zdmciIHZlcnNpb249IjEiIHZpZXdCb3g9IjAgMCA0OCA0OCIgZW5hYmxlLWJhY2tncm91bmQ9Im5ldyAwIDAgNDggNDgiPiYjeGE7ICAgIDxjaXJjbGUgZmlsbD0iIzAwQUNDMSIgY3g9IjE3IiBjeT0iMTciIHI9IjE0Ii8+JiN4YTsgICAgPGNpcmNsZSBmaWxsPSIjZWVlIiBjeD0iMTciIGN5PSIxNyIgcj0iMTEiLz4mI3hhOyAgICA8cmVjdCB4PSIxNiIgeT0iOCIgd2lkdGg9IjIiIGhlaWdodD0iOSIvPiYjeGE7ICAgIDxyZWN0IHg9IjE4LjIiIHk9IjE2IiB0cmFuc2Zvcm09Im1hdHJpeCgtLjcwNyAuNzA3IC0uNzA3IC0uNzA3IDQ2LjgzNCAxOS4zOTkpIiB3aWR0aD0iMi40IiBoZWlnaHQ9IjYuOCIvPiYjeGE7ICAgIDxjaXJjbGUgY3g9IjE3IiBjeT0iMTciIHI9IjIiLz4mI3hhOyAgICA8Y2lyY2xlIGZpbGw9IiMwMEFDQzEiIGN4PSIxNyIgY3k9IjE3IiByPSIxIi8+JiN4YTsgICAgPHBhdGggZmlsbD0iI0ZGQzEwNyIgZD0iTTExLjksNDJsMTQuNC0yNC4xYzAuOC0xLjMsMi43LTEuMywzLjQsMEw0NC4xLDQyYzAuOCwxLjMtMC4yLDMtMS43LDNIMTMuNkMxMi4xLDQ1LDExLjEsNDMuMywxMS45LDQyeiIvPiYjeGE7ICAgIDxwYXRoIGZpbGw9IiMyNjMyMzgiIGQ9Ik0yNi40LDM5LjljMC0wLjIsMC0wLjQsMC4xLTAuNnMwLjItMC4zLDAuMy0wLjVzMC4zLTAuMiwwLjUtMC4zczAuNC0wLjEsMC42LTAuMXMwLjUsMCwwLjcsMC4xIHMwLjQsMC4yLDAuNSwwLjNzMC4yLDAuMywwLjMsMC41czAuMSwwLjQsMC4xLDAuNnMwLDAuNC0wLjEsMC42cy0wLjIsMC4zLTAuMywwLjVzLTAuMywwLjItMC41LDAuM3MtMC40LDAuMS0wLjcsMC4xIHMtMC41LDAtMC42LTAuMXMtMC40LTAuMi0wLjUtMC4zcy0wLjItMC4zLTAuMy0wLjVTMjYuNCw0MC4xLDI2LjQsMzkuOXogTTI5LjIsMzYuOGgtMi4zTDI2LjUsMjdoM0wyOS4yLDM2Ljh6Ii8+JiN4YTs8L3N2Zz4=" vertex="1" parent="1">
          <mxGeometry x="244" y="976" width="84" height="84" as="geometry" />
        </mxCell>
        <mxCell id="NWA3tGayirmU5eZJuVyy-43" value="&lt;h1 style=&quot;&quot;&gt;&lt;font style=&quot;font-size: 40px;&quot;&gt;Stage2&lt;/font&gt;&lt;/h1&gt;" style="text;strokeColor=none;align=center;fillColor=none;html=1;verticalAlign=middle;whiteSpace=wrap;rounded=0;fontSize=24;fontColor=#832BFF;" vertex="1" parent="1">
          <mxGeometry x="275" y="570" width="165" height="30" as="geometry" />
        </mxCell>
        <mxCell id="NWA3tGayirmU5eZJuVyy-44" value="&lt;h1 style=&quot;&quot;&gt;&lt;span style=&quot;font-size: 40px;&quot;&gt;Stage 3&lt;/span&gt;&lt;/h1&gt;" style="text;strokeColor=none;align=center;fillColor=none;html=1;verticalAlign=middle;whiteSpace=wrap;rounded=0;fontSize=24;fontColor=#832BFF;" vertex="1" parent="1">
          <mxGeometry x="390" y="1026" width="165" height="30" as="geometry" />
        </mxCell>
      </root>
    </mxGraphModel>
  </diagram>
</mxfile>
